# xmcd
#
# Track frame offsets:
#	150
#	2137
#	13312
#	32407
#	61037
#	75825
#	85030
#	112357
#	147502
#	167055
#	190862
#
# Disc length: 2625 seconds
#
# Revision: 1
# Processed by: cddbd v1.4PL0 Copyright (c) Steve Scherf et al.
# Submitted via: audiograbber 1.81.03
#
DISCID=830a3f0b
DTITLE=Cowboy Nation - A Journey Out of Time
DYEAR=2000
DGENRE=Country
TTITLE0=Entrada
TTITLE1=Back In The Saddle
TTITLE2=Two Miles To Town
TTITLE3=Way To Go
TTITLE4=E-Z Ridin' Cowboy
TTITLE5=Blood On The Saddle
TTITLE6=Cowboys' Vision
TTITLE7=Shenandoah
TTITLE8=Leaving This Town
TTITLE9=Cut Above
TTITLE10=Salida
EXTD=
EXTT0=
EXTT1=
EXTT2=
EXTT3=
EXTT4=
EXTT5=
EXTT6=
EXTT7=
EXTT8=
EXTT9=
EXTT10=
PLAYORDER=
